<?xml version="1.0" encoding="UTF-8"?>
<svg width="17px" height="17px" viewBox="0 0 17 17" version="1.1" xmlns="http://www.w3.org/2000/svg" xmlns:xlink="http://www.w3.org/1999/xlink">
    <!-- Generator: Sketch 43.2 (39069) - http://www.bohemiancoding.com/sketch -->
    <title>linkedin icon</title>
    <desc>Created with Sketch.</desc>
    <defs></defs>
    <g id="Design" stroke="none" stroke-width="1" fill="none" fill-rule="evenodd" fill-opacity="0.75">
        <g id="Synthetica-1600px" transform="translate(-356.000000, -2197.000000)" fill="#FFFFFF">
            <g id="Crew" transform="translate(0.000000, 1742.000000)">
                <g id="Peter" transform="translate(217.000000, 237.000000)">
                    <g id="overlay">
                        <g id="8-bit-aesthetic-kits-+-linkedin-icon-+-twitter-icon-+-PETER-FINLAN" transform="translate(11.000000, 79.000000)">
                            <g id="linkedin-icon-+-twitter-icon" transform="translate(100.000000, 139.000000)">
                                <path d="M28.4287982,5.45114611 L31.7422389,5.45114611 L31.7422389,16.9989115 L28.4287982,16.9989115 L28.4287982,5.45114611 Z M30.0010583,4.00672301 L29.9770696,4.00672301 C28.7776341,4.00672301 28,3.12395953 28,2.00608273 C28,0.865347676 28.8006232,0 30.0240475,0 C31.2464722,0 31.9981185,0.8631707 32.0221072,2.00281726 C32.0221072,3.12069407 31.2464722,4.00672301 30.0010583,4.00672301 L30.0010583,4.00672301 Z M45,17 L41.2427681,17 L41.2427681,11.0231144 C41.2427681,9.45895761 40.6550447,8.39223972 39.3626529,8.39223972 C38.3741181,8.39223972 37.8243768,9.11173006 37.5684972,9.80727366 C37.4725423,10.0554488 37.4875353,10.4026764 37.4875353,10.7509924 L37.4875353,17 L33.7652869,17 C33.7652869,17 33.8132643,6.41336919 33.7652869,5.45114611 L37.4875353,5.45114611 L37.4875353,7.26347804 C37.7074318,6.47105903 38.8968721,5.34012037 40.7949788,5.34012037 C43.1498706,5.34012037 45,7.002241 45,10.5779229 L45,17 L45,17 Z" id="linkedin-icon"></path>
                            </g>
                        </g>
                    </g>
                </g>
            </g>
        </g>
    </g>
</svg>