<?xml version="1.0" encoding="UTF-8"?>
<svg width="60px" height="60px" viewBox="0 0 60 60" version="1.1" xmlns="http://www.w3.org/2000/svg" xmlns:xlink="http://www.w3.org/1999/xlink">
    <!-- Generator: Sketch 43 (38999) - http://www.bohemiancoding.com/sketch -->
    <title>Cup</title>
    <desc>Created with Sketch.</desc>
    <defs></defs>
    <g id="Design" stroke="none" stroke-width="1" fill="none" fill-rule="evenodd">
        <g id="Synthetica-1600px" transform="translate(-297.000000, -2744.000000)" fill="#FFFFFF">
            <g id="Stats" transform="translate(0.000000, 2569.000000)">
                <g id="Group" transform="translate(297.000000, 166.000000)">
                    <g id="18-+-Cup-+-AWARDS-WON">
                        <g id="Cup" transform="translate(0.000000, 9.000000)">
                            <path d="M30,35.625 C20.69625,35.625 13.125,28.05375 13.125,18.75 L13.125,0 L46.875,0 L46.875,18.75 C46.875,28.05375 39.30375,35.625 30,35.625 L30,35.625 Z M16.875,3.75 L16.875,18.75 C16.875,25.9875 22.7625,31.875 30,31.875 C37.2375,31.875 43.125,25.9875 43.125,18.75 L43.125,3.75 L16.875,3.75 L16.875,3.75 Z" id="Shape"></path>
                            <path d="M30,28.125 C24.830625,28.125 20.625,23.919375 20.625,18.75 L20.625,9.375 L24.375,9.375 L24.375,18.75 C24.375,21.85125 26.89875,24.375 30,24.375 L30,28.125 L30,28.125 Z" id="Shape"></path>
                            <polygon id="Shape" points="28.125 44.0625 31.875 44.0625 31.875 58.125 28.125 58.125"></polygon>
                            <polygon id="Shape" points="13.125 56.25 46.875 56.25 46.875 60 13.125 60"></polygon>
                            <path d="M50.625,18.75 L50.625,15 C53.72625,15 56.25,12.47625 56.25,9.375 L56.25,7.5 L50.625,7.5 L50.625,3.75 L60,3.75 L60,9.375 C60,14.544375 55.794375,18.75 50.625,18.75 L50.625,18.75 Z" id="Shape"></path>
                            <path d="M9.375,18.75 C4.205625,18.75 0,14.544375 0,9.375 L0,3.75 L9.375,3.75 L9.375,7.5 L3.75,7.5 L3.75,9.375 C3.75,12.47625 6.27375,15 9.375,15 L9.375,18.75 L9.375,18.75 Z" id="Shape"></path>
                            <path d="M30,46.875 C25.86375,46.875 22.5,43.51125 22.5,39.375 L26.25,39.375 C26.25,41.443125 27.931875,43.125 30,43.125 C32.068125,43.125 33.75,41.443125 33.75,39.375 L37.5,39.375 C37.5,43.51125 34.13625,46.875 30,46.875 L30,46.875 Z" id="Shape"></path>
                        </g>
                    </g>
                </g>
            </g>
        </g>
    </g>
</svg>