<?xml version="1.0" encoding="UTF-8"?>
<svg width="49px" height="51px" viewBox="0 0 49 51" version="1.1" xmlns="http://www.w3.org/2000/svg" xmlns:xlink="http://www.w3.org/1999/xlink">
    <!-- Generator: Sketch 43 (38999) - http://www.bohemiancoding.com/sketch -->
    <title>Book</title>
    <desc>Created with Sketch.</desc>
    <defs></defs>
    <g id="Design" stroke="none" stroke-width="1" fill="none" fill-rule="evenodd">
        <g id="Synthetica-1600px" transform="translate(-720.000000, -2748.000000)" fill="#FFFFFF">
            <g id="Stats" transform="translate(0.000000, 2569.000000)">
                <g id="Group" transform="translate(297.000000, 166.000000)">
                    <g id="Book-+-18-+-AWARDS-WON" transform="translate(423.000000, 0.000000)">
                        <g id="Book" transform="translate(0.000000, 13.000000)">
                            <polygon id="Shape" points="23.2934754 7.96875 26.5065902 7.96875 26.5065902 39.84375 23.2934754 39.84375 23.2934754 7.96875"></polygon>
                            <path d="M26.5065902,51 L23.2934754,51 C23.2934754,48.3639375 21.1310492,46.21875 18.4738033,46.21875 L0.801672131,46.21875 L0.801672131,43.03125 L18.4738033,43.03125 C22.903082,43.03125 26.5065902,46.6060313 26.5065902,51 L26.5065902,51 Z" id="Shape"></path>
                            <path d="M26.5065902,51 L23.2934754,51 C23.2934754,46.6060313 26.8969836,43.03125 31.3262623,43.03125 L48.9983934,43.03125 L48.9983934,46.21875 L31.3262623,46.21875 C28.6690164,46.21875 26.5065902,48.3639375 26.5065902,51 L26.5065902,51 Z" id="Shape"></path>
                            <path d="M20.1269508,39.84375 L0.801672131,39.84375 L0.801672131,0 L18.4738033,0 C22.903082,0 26.5065902,3.57478125 26.5065902,7.96875 L23.2934754,7.96875 C23.2934754,5.3326875 21.1310492,3.1875 18.4738033,3.1875 L4.01478689,3.1875 L4.01478689,36.65625 L20.1269508,36.65625 L20.1269508,39.84375 L20.1269508,39.84375 Z" id="Shape"></path>
                            <path d="M48.9983934,39.84375 L29.6763279,39.84375 L29.6763279,36.65625 L45.7852787,36.65625 L45.7852787,3.1875 L31.3262623,3.1875 C28.6690164,3.1875 26.5065902,5.3326875 26.5065902,7.96875 L23.2934754,7.96875 C23.2934754,3.57478125 26.8969836,0 31.3262623,0 L48.9983934,0 L48.9983934,39.84375 L48.9983934,39.84375 Z" id="Shape"></path>
                        </g>
                    </g>
                </g>
            </g>
        </g>
    </g>
</svg>