<?xml version="1.0" encoding="UTF-8"?>
<svg width="56px" height="57px" viewBox="0 0 56 57" version="1.1" xmlns="http://www.w3.org/2000/svg" xmlns:xlink="http://www.w3.org/1999/xlink">
    <!-- Generator: Sketch 43 (38999) - http://www.bohemiancoding.com/sketch -->
    <title>Pen</title>
    <desc>Created with Sketch.</desc>
    <defs></defs>
    <g id="Design" stroke="none" stroke-width="1" fill="none" fill-rule="evenodd">
        <g id="Synthetica-1600px" transform="translate(-1120.000000, -2744.000000)" fill="#FFFFFF">
            <g id="Stats" transform="translate(0.000000, 2569.000000)">
                <g id="Group" transform="translate(297.000000, 166.000000)">
                    <g id="Pen-+-18-+-AWARDS-WON" transform="translate(823.000000, 0.000000)">
                        <g id="Pen" transform="translate(0.000000, 9.000000)">
                            <polygon id="Shape" points="17.7230968 37.5874286 20.2033548 40.2166667 3.94890323 55.6012381 1.46864516 52.972"></polygon>
                            <path d="M22.5806452,42.5274286 C18.5956129,42.5274286 15.3548387,39.2811429 15.3548387,35.2893333 C15.3548387,31.2975238 18.5956129,28.0512381 22.5806452,28.0512381 C26.5656774,28.0512381 29.8064516,31.2975238 29.8064516,35.2893333 C29.8064516,39.2811429 26.5656774,42.5274286 22.5806452,42.5274286 L22.5806452,42.5274286 Z M22.5806452,31.6702857 C20.588129,31.6702857 18.9677419,33.2934286 18.9677419,35.2893333 C18.9677419,37.2852381 20.588129,38.908381 22.5806452,38.908381 C24.5731613,38.908381 26.1935484,37.2852381 26.1935484,35.2893333 C26.1935484,33.2934286 24.5731613,31.6702857 22.5806452,31.6702857 L22.5806452,31.6702857 Z" id="Shape"></path>
                            <path d="M40.6469677,29.8589524 C36.7865806,29.8589524 33.1574194,28.351619 30.427871,25.6174286 C27.6965161,22.8832381 26.1935484,19.2479048 26.1917419,15.3827619 C26.1917419,11.5158095 27.6965161,7.88047619 30.427871,5.14447619 L35.3630968,0.150190476 L55.8464516,20.6394286 L50.8642581,25.6192381 C48.1347097,28.351619 44.5073548,29.8589524 40.6469677,29.8589524 L40.6469677,29.8589524 Z M35.3775484,5.27838095 L32.9876129,7.69590476 C30.931871,9.75695238 29.8046452,12.4839048 29.8046452,15.3827619 C29.8046452,18.2834286 30.9336774,21.0067619 32.9821935,23.0587619 C35.0289032,25.1089524 37.7512258,26.2399048 40.6469677,26.2399048 C43.5427097,26.2399048 46.2632258,25.1089524 48.3117419,23.0587619 L50.7323871,20.6394286 L35.3775484,5.27838095 L35.3775484,5.27838095 Z" id="Shape"></path>
                            <polygon id="Shape" points="0.637677419 56.509619 4.63354839 21.4899048 21.7027097 11.9899048 23.4585806 15.1529524 8.0116129 23.7481905 4.78167742 52.0618095 35.6990968 46.3581905 40.7589677 32.8392381 44.1442581 34.1131429 38.3654194 49.5465714"></polygon>
                        </g>
                    </g>
                </g>
            </g>
        </g>
    </g>
</svg>