<?xml version="1.0" encoding="UTF-8"?>
<svg width="18px" height="16px" viewBox="0 0 18 16" version="1.1" xmlns="http://www.w3.org/2000/svg" xmlns:xlink="http://www.w3.org/1999/xlink">
    <!-- Generator: Sketch 43.2 (39069) - http://www.bohemiancoding.com/sketch -->
    <title>twitter icon</title>
    <desc>Created with Sketch.</desc>
    <defs></defs>
    <g id="Design" stroke="none" stroke-width="1" fill="none" fill-rule="evenodd" fill-opacity="0.75">
        <g id="Synthetica-1600px" transform="translate(-328.000000, -2199.000000)" fill="#FFFFFF">
            <g id="Crew" transform="translate(0.000000, 1742.000000)">
                <g id="Peter" transform="translate(217.000000, 237.000000)">
                    <g id="overlay">
                        <g id="8-bit-aesthetic-kits-+-linkedin-icon-+-twitter-icon-+-PETER-FINLAN" transform="translate(11.000000, 79.000000)">
                            <g id="linkedin-icon-+-twitter-icon" transform="translate(100.000000, 139.000000)">
                                <path d="M15.8795563,4.43919853 C16.6423666,3.95782175 17.2276809,3.19452756 17.5023772,2.28526031 C16.7881669,2.73209385 15.9989435,3.0552403 15.1568938,3.2301851 C14.4849445,2.47246239 13.5245642,2 12.461701,2 C10.4226096,2 8.77020602,3.74387652 8.77020602,5.89447184 C8.77020602,6.19978952 8.80084522,6.49730711 8.86423666,6.78145313 C5.79609086,6.61876561 3.07554147,5.06989125 1.25303751,2.71203648 C0.935023772,3.2892429 0.753301638,3.95782175 0.753301638,4.67097253 C0.753301638,6.02150183 1.40517697,7.21380079 2.39619651,7.91357999 C1.79080824,7.89352263 1.22134179,7.71634923 0.722662441,7.42663172 L0.722662441,7.47454654 C0.722662441,9.36216752 1.99471738,10.9366707 3.68621236,11.2932461 C3.37559429,11.3846186 3.05018489,11.4303048 2.7120972,11.4303048 C2.47437929,11.4303048 2.241944,11.4069045 2.01796091,11.3612183 C2.48705758,12.9078641 3.85103011,14.0355337 5.46751189,14.0656198 C4.20285261,15.1108314 2.61067089,15.7326097 0.881141046,15.7326097 C0.583201268,15.7326097 0.288431062,15.7158953 0,15.6791234 C1.63444268,16.7833928 3.57527734,17.4285714 5.66085578,17.4285714 C12.4543053,17.4285714 16.1669308,11.4938198 16.1669308,6.34687687 C16.1669308,6.17750356 16.1648177,6.00924455 16.1574221,5.84321413 C16.879028,5.29386517 17.5066033,4.60745754 18,3.82633458 C17.3375594,4.13610945 16.6254622,4.34559749 15.8795563,4.43919853 Z" id="twitter-icon"></path>
                            </g>
                        </g>
                    </g>
                </g>
            </g>
        </g>
    </g>
</svg>